<?xml version="1.0" standalone="no"?>
<!DOCTYPE svg PUBLIC "-//W3C//DTD SVG 20010904//EN"
 "http://www.w3.org/TR/2001/REC-SVG-20010904/DTD/svg10.dtd">
<svg version="1.0" xmlns="http://www.w3.org/2000/svg"
 width="1080.000000pt" height="1080.000000pt" viewBox="0 0 1080.000000 1080.000000"
 preserveAspectRatio="xMidYMid meet">

<g transform="translate(0.000000,1080.000000) scale(0.100000,-0.100000)"
fill="#000000" stroke="none">
<path d="M5745 8903 c-44 -5 -51 -12 -105 -117 -21 -39 -65 -125 -100 -191
-34 -66 -65 -124 -69 -128 -8 -8 -27 10 -46 43 -5 10 -32 51 -60 91 -27 39
-55 80 -61 90 -5 10 -35 54 -65 99 l-54 80 -60 -2 -60 -3 3 -180 c2 -99 8
-216 14 -260 6 -44 11 -115 12 -157 1 -42 4 -80 8 -83 4 -4 33 -3 65 1 l58 9
3 75 c1 41 -1 124 -6 183 -4 59 -5 112 -2 118 6 9 38 -31 100 -123 111 -164
122 -178 144 -178 12 0 29 6 38 13 15 12 168 291 168 307 0 4 7 13 15 20 12
10 15 10 15 -1 0 -54 21 -393 24 -396 2 -2 34 1 71 8 l67 11 -6 112 c-3 61
-10 190 -15 286 -5 96 -10 199 -10 228 -1 58 6 54 -86 45z"/>
<path d="M6783 8663 c-12 -27 -66 -140 -121 -253 -138 -286 -152 -317 -152
-334 0 -9 21 -26 48 -40 43 -22 49 -22 70 -9 18 13 25 13 37 3 8 -7 15 -18 15
-24 0 -20 51 -62 102 -85 57 -25 152 -28 206 -6 52 22 110 81 138 142 31 68
33 175 4 232 -46 90 -129 142 -227 142 l-62 1 10 26 c5 14 28 61 49 104 22 43
40 83 40 88 0 10 -102 60 -122 60 -7 0 -23 -21 -35 -47z m141 -347 c101 -42
111 -176 19 -257 -33 -28 -41 -31 -88 -27 -59 5 -96 29 -119 76 -23 47 -20 80
13 138 44 76 104 100 175 70z"/>
<path d="M6105 8646 c-65 -30 -102 -68 -131 -134 -61 -136 -7 -281 133 -352
41 -21 62 -25 143 -25 89 0 98 2 145 31 62 38 103 97 121 174 12 52 12 68 -1
116 -8 30 -24 70 -35 89 -66 107 -254 158 -375 101z m189 -110 c114 -47 113
-206 -1 -273 -42 -24 -44 -24 -91 -9 -71 24 -95 54 -99 124 -5 69 16 116 66
149 39 26 77 29 125 9z"/>
<path d="M7442 8358 c-7 -7 -12 -33 -12 -58 0 -58 32 -94 85 -94 49 0 75 27
75 79 0 57 -30 85 -91 85 -25 0 -50 -5 -57 -12z"/>
<path d="M4058 8319 c-15 -11 -39 -45 -54 -77 l-27 -56 -17 22 c-10 12 -21 22
-24 22 -8 0 -95 -60 -102 -71 -3 -5 6 -25 20 -44 14 -18 26 -36 26 -39 0 -5
37 -64 177 -278 24 -38 50 -68 58 -68 23 0 105 60 105 77 0 9 -15 36 -33 62
-17 25 -38 58 -46 73 -8 15 -23 37 -33 48 -23 24 -38 71 -38 118 0 24 10 44
40 76 22 24 40 48 40 55 0 13 -45 87 -57 94 -5 3 -20 -4 -35 -14z"/>
<path d="M4643 8200 c-12 -5 -29 -23 -38 -40 -30 -58 13 -130 77 -130 81 0
128 86 80 148 -20 26 -83 38 -119 22z"/>
<path d="M7323 8158 c-34 -50 -184 -262 -231 -327 -18 -24 -32 -49 -32 -55 1
-17 89 -78 107 -74 9 2 46 45 82 95 172 241 204 288 208 303 4 16 -32 55 -78
84 -27 17 -27 17 -56 -26z"/>
<path d="M7664 8072 c-43 -49 -101 -115 -129 -147 -27 -31 -100 -114 -162
-184 l-112 -126 47 -42 c25 -24 52 -43 59 -43 13 0 78 67 169 174 33 38 114
130 181 205 68 75 123 141 123 146 0 14 -9 24 -56 68 l-41 38 -79 -89z"/>
<path d="M3573 7951 c-54 -25 -120 -92 -144 -145 -25 -55 -25 -167 0 -221 23
-51 77 -106 130 -133 91 -48 231 -18 325 68 51 47 99 137 94 177 -3 27 -5 28
-57 28 l-54 0 -12 -41 c-13 -44 -38 -74 -88 -104 -37 -23 -105 -26 -131 -7
-16 12 -7 23 99 125 64 62 129 122 145 134 16 11 26 26 23 34 -2 7 -29 32 -59
55 -52 40 -57 42 -142 46 -72 3 -94 0 -129 -16z m156 -110 l24 -18 -39 -34
c-21 -19 -65 -59 -97 -89 -57 -53 -59 -54 -74 -35 -20 27 -12 108 13 137 51
57 127 74 173 39z"/>
<path d="M7718 7702 c-67 -24 -136 -85 -164 -146 -28 -60 -32 -146 -9 -190 8
-15 15 -34 15 -41 0 -22 124 -148 165 -166 75 -35 95 -24 95 51 0 31 -4 40
-22 46 -37 11 -78 44 -109 87 -22 31 -29 51 -29 87 0 77 35 89 80 27 55 -75
203 -247 213 -247 6 0 32 22 58 49 85 88 92 216 18 326 -38 56 -83 91 -149
116 -60 23 -99 23 -162 1z m167 -129 c68 -33 101 -146 55 -188 -11 -10 -21
-16 -23 -14 -1 2 -27 33 -58 69 -93 110 -100 121 -88 136 16 19 71 17 114 -3z"/>
<path d="M3185 7501 c-72 -34 -134 -108 -155 -183 -7 -26 -10 -56 -7 -67 4
-17 2 -18 -20 -8 -16 7 -27 7 -31 1 -4 -6 -22 -31 -40 -56 l-32 -47 32 -23
c18 -13 40 -27 49 -33 10 -5 126 -83 259 -173 133 -90 248 -161 255 -158 15 5
75 89 75 104 0 6 -15 19 -32 30 -64 39 -141 97 -145 109 -2 6 11 16 30 22 47
16 81 53 118 131 7 14 14 54 17 90 3 53 0 75 -18 113 -61 129 -237 203 -355
148z m179 -166 c43 -33 56 -59 56 -116 0 -58 -23 -94 -76 -119 -40 -20 -51
-21 -83 -11 -50 15 -103 51 -118 81 -31 62 -2 156 57 188 41 21 121 10 164
-23z"/>
<path d="M8195 6951 c-85 -15 -164 -77 -201 -156 -21 -45 -26 -153 -8 -176 6
-8 14 -26 18 -41 3 -14 28 -46 55 -70 46 -41 48 -45 30 -56 -23 -14 -23 -24
-5 -65 7 -18 17 -42 22 -54 l9 -22 45 19 c43 18 97 39 245 94 39 15 84 33 100
40 17 7 57 23 90 35 33 13 69 27 80 32 11 5 38 15 60 22 22 8 41 22 43 31 2 9
-7 41 -19 72 -17 41 -27 53 -38 48 -9 -3 -47 -17 -86 -31 -38 -14 -79 -30 -90
-36 -44 -24 -49 -16 -30 49 6 20 -17 119 -31 135 -8 8 -14 20 -14 25 0 13 -69
78 -95 92 -28 13 -132 21 -180 13z m129 -151 c56 -28 79 -63 80 -120 2 -114
-143 -189 -241 -125 -33 22 -67 99 -58 133 11 43 54 92 99 112 54 24 71 24
120 0z"/>
<path d="M2865 6899 c-102 -54 -156 -141 -163 -264 -4 -71 -1 -86 22 -131 33
-66 69 -101 133 -130 102 -47 234 -20 298 59 14 18 30 38 36 45 5 7 19 31 29
55 24 51 27 181 6 230 -19 45 -91 116 -140 138 -59 27 -169 26 -221 -2z m168
-139 c61 -30 82 -63 82 -132 -1 -49 -5 -62 -29 -87 -46 -48 -117 -56 -186 -21
-95 48 -105 161 -22 230 44 36 93 39 155 10z"/>
<path d="M2406 6338 c-2 -7 -11 -35 -20 -63 -21 -64 -21 -65 8 -65 14 0 37 -5
52 -10 15 -6 52 -15 83 -19 64 -10 187 -35 277 -57 33 -8 79 -14 101 -14 22 0
54 -7 69 -15 16 -8 48 -15 70 -15 38 0 42 2 48 31 3 17 6 47 6 65 0 31 -3 34
-52 49 -28 8 -62 15 -74 15 -13 0 -35 5 -49 10 -15 6 -64 17 -109 25 -126 22
-229 43 -272 53 -78 20 -134 24 -138 10z"/>
<path d="M8305 6289 c-54 -28 -80 -54 -112 -108 -25 -43 -27 -54 -26 -153 0
-90 4 -113 23 -150 21 -42 67 -98 80 -98 4 0 21 18 39 41 l33 40 -26 37 c-56
82 -49 208 14 242 33 17 37 12 49 -57 11 -65 39 -274 40 -300 1 -23 83 -15
139 13 130 64 176 222 108 366 -29 61 -63 96 -121 127 -56 30 -184 30 -240 0z
m221 -135 c34 -23 54 -65 54 -116 0 -68 -10 -87 -50 -108 l-38 -19 -10 27 c-6
15 -13 67 -17 115 -3 49 -9 95 -12 103 -7 20 41 19 73 -2z"/>
<path d="M2715 6014 c-72 -20 -125 -61 -160 -124 -26 -48 -29 -65 -30 -135 0
-103 15 -144 76 -203 150 -147 373 -89 442 113 33 95 17 222 -36 288 -15 18
-37 23 -37 7 0 -5 -13 -16 -30 -25 -33 -17 -39 -45 -15 -65 11 -9 15 -32 15
-82 0 -93 -28 -144 -89 -163 l-24 -7 5 195 c4 133 2 199 -5 206 -14 14 -48 12
-112 -5z m30 -261 c-4 -71 -8 -129 -10 -131 -1 -1 -15 3 -32 8 -37 13 -73 74
-73 125 0 39 30 98 58 115 9 5 28 10 41 10 l23 0 -7 -127z"/>
<path d="M8665 5704 c-33 -11 -67 -23 -75 -26 -8 -4 -46 -16 -85 -28 -38 -13
-83 -28 -100 -35 -16 -6 -70 -25 -120 -41 l-90 -30 -7 -64 c-4 -36 -5 -72 -3
-80 6 -18 493 -266 503 -255 4 3 7 34 7 68 l0 62 -167 85 c-93 46 -168 88
-168 91 0 4 39 19 88 34 48 15 92 31 97 35 6 4 26 11 45 15 19 4 56 16 82 27
43 18 48 24 53 62 4 23 5 55 3 71 l-3 30 -60 -21z"/>
<path d="M2527 5394 c-7 -7 -4 -40 8 -100 4 -16 15 -24 42 -29 21 -4 43 -10
48 -15 6 -4 35 -12 65 -18 30 -6 73 -15 95 -21 22 -6 54 -11 70 -11 17 0 38
-7 48 -14 17 -13 15 -15 -18 -36 -19 -12 -41 -27 -48 -33 -7 -7 -37 -25 -67
-41 -30 -16 -69 -39 -87 -52 -17 -13 -43 -28 -57 -34 -22 -8 -26 -16 -26 -47
0 -65 12 -113 27 -113 7 0 26 8 41 19 38 26 207 135 329 212 l103 64 -6 35
c-4 19 -10 39 -15 45 -5 5 -9 23 -9 41 0 30 -3 33 -52 44 -92 20 -181 41 -233
55 -27 8 -70 17 -95 21 -25 3 -52 10 -60 14 -24 12 -95 22 -103 14z"/>
<path d="M8265 5130 c-54 -18 -109 -65 -143 -120 -44 -74 -55 -119 -50 -213 3
-63 7 -82 22 -93 17 -12 24 -11 60 9 30 17 40 28 38 43 -17 100 7 179 67 220
68 46 102 23 66 -45 -8 -16 -17 -48 -21 -72 -4 -24 -10 -48 -14 -54 -5 -5 -11
-28 -15 -50 -4 -22 -13 -55 -22 -73 -30 -68 -9 -89 93 -91 83 -2 112 9 168 60
56 51 90 114 102 188 8 48 -12 145 -33 162 -7 6 -13 17 -13 23 0 18 -49 61
-98 86 -49 26 -158 36 -207 20z m203 -182 c53 -58 50 -128 -8 -189 -29 -31
-44 -39 -72 -39 l-35 0 12 53 c7 28 18 65 24 80 6 16 11 43 11 61 0 56 32 72
68 34z"/>
<path d="M3071 4861 c-16 -11 -53 -91 -41 -91 5 0 22 -11 39 -26 21 -17 37
-46 52 -93 l22 -68 -24 -44 c-13 -24 -31 -44 -39 -44 -9 0 -27 33 -48 85 -19
47 -40 99 -47 115 -8 17 -24 57 -36 90 -13 33 -26 63 -29 68 -8 10 -97 -37
-134 -71 -38 -36 -76 -123 -76 -176 0 -47 25 -132 46 -157 8 -8 14 -20 14 -25
0 -14 47 -56 94 -84 33 -20 53 -24 120 -24 73 0 87 4 139 34 70 39 104 87 120
167 22 109 -11 223 -88 301 -54 54 -61 58 -84 43z m-156 -213 c9 -24 30 -78
45 -120 l29 -78 -37 0 c-76 1 -122 53 -122 136 0 37 6 59 21 78 29 36 43 33
64 -16z"/>
<path d="M7960 4573 c-12 -27 -22 -57 -23 -68 -2 -24 19 -35 373 -198 30 -14
100 -46 154 -71 54 -25 104 -46 110 -46 15 0 68 108 60 121 -5 8 -267 139
-279 139 -4 0 -90 40 -263 121 -56 27 -104 49 -107 49 -2 0 -14 -21 -25 -47z"/>
<path d="M3309 4364 c-30 -22 -58 -42 -165 -114 -12 -8 -53 -36 -91 -62 -37
-26 -102 -71 -143 -99 -41 -28 -77 -54 -80 -58 -3 -3 -17 -12 -32 -20 -15 -8
-29 -20 -33 -28 -5 -15 19 -57 58 -100 l19 -22 93 65 c51 35 98 64 104 64 6 0
11 -17 11 -39 0 -42 35 -118 73 -160 12 -13 45 -34 72 -47 67 -32 136 -31 208
1 57 25 137 88 137 108 0 6 7 18 16 28 21 23 30 131 15 186 -13 47 -102 153
-130 153 -23 1 -55 27 -42 35 19 11 12 50 -16 93 -15 23 -30 42 -33 42 -3 0
-22 -12 -41 -26z m95 -254 c34 -33 38 -43 39 -88 1 -88 -66 -152 -161 -152
-59 0 -93 23 -123 83 -29 55 -15 101 47 156 70 61 135 62 198 1z"/>
<path d="M7852 4293 c-113 -56 -185 -201 -162 -325 24 -128 164 -231 289 -214
25 3 50 11 55 16 6 6 18 10 28 10 24 0 121 97 147 148 27 52 37 152 22 209
-14 52 -92 140 -146 164 -63 29 -167 25 -233 -8z m186 -137 c55 -34 76 -75 69
-139 -11 -123 -169 -160 -257 -61 -25 29 -30 43 -30 88 0 59 20 94 74 128 40
24 89 19 144 -16z"/>
<path d="M7367 4009 l-47 -41 80 -88 c44 -48 80 -90 80 -94 0 -3 -12 -6 -28
-6 -33 0 -96 -32 -135 -68 -43 -41 -77 -122 -77 -185 0 -58 38 -147 83 -195
36 -39 135 -82 188 -82 118 0 228 89 254 204 6 26 7 27 24 12 10 -9 20 -16 24
-16 13 0 87 77 87 91 0 8 -28 43 -63 79 -34 36 -75 81 -91 100 -95 115 -303
330 -318 330 -7 -1 -34 -19 -61 -41z m236 -353 c100 -74 90 -215 -18 -256 -97
-37 -220 71 -201 176 8 38 65 100 99 107 37 7 91 -5 120 -27z"/>
<path d="M3795 3623 c-50 -26 -113 -93 -136 -147 -26 -58 -30 -140 -10 -198
14 -43 104 -138 130 -138 9 0 22 -5 27 -10 6 -6 29 -14 52 -18 l42 -7 -42 -60
c-22 -33 -54 -75 -69 -94 -32 -39 -30 -46 34 -92 57 -41 58 -41 180 132 17 25
70 97 117 160 47 63 92 123 100 135 8 12 30 40 48 64 17 24 32 47 32 51 0 4
-21 24 -47 44 -43 33 -48 34 -69 20 -30 -19 -34 -19 -34 3 0 36 -64 116 -115
144 -43 24 -62 28 -130 27 -53 0 -90 -5 -110 -16z m206 -136 c95 -63 83 -202
-23 -258 -46 -24 -65 -24 -120 0 -79 34 -102 123 -53 202 49 77 130 100 196
56z"/>
<path d="M6905 3412 c-70 -35 -141 -100 -162 -150 -16 -40 -14 -44 43 -62 44
-13 64 -8 64 15 0 22 80 84 124 96 44 12 93 6 122 -15 18 -14 18 -15 0 -35
-11 -12 -23 -21 -28 -21 -4 0 -71 -37 -148 -81 -91 -53 -140 -88 -140 -99 0
-21 36 -69 77 -104 120 -101 299 -64 411 85 7 9 19 43 28 75 12 47 13 67 3
111 -16 69 -63 140 -119 178 -40 27 -55 30 -130 33 -77 3 -91 0 -145 -26z
m270 -239 c10 -13 10 -24 -2 -52 -27 -66 -90 -115 -145 -113 -26 1 -88 38 -88
53 0 11 98 79 114 79 8 0 18 5 21 10 6 10 61 38 79 39 5 1 14 -7 21 -16z"/>
<path d="M4393 3314 c-34 -8 -42 -25 -29 -64 10 -33 14 -35 66 -40 64 -7 146
-47 174 -86 24 -33 28 -100 6 -96 -8 2 -89 35 -179 74 l-164 72 -23 -28 c-21
-24 -24 -37 -24 -115 0 -78 3 -91 28 -132 57 -88 136 -129 251 -129 97 0 138
17 195 80 52 57 66 97 66 180 0 83 -15 123 -64 178 -66 73 -214 125 -303 106z
m23 -295 c27 -11 61 -27 76 -35 14 -7 31 -14 37 -14 23 0 60 -32 54 -46 -10
-26 -82 -56 -117 -50 -73 14 -126 73 -126 141 0 31 12 31 76 4z"/>
<path d="M6520 3226 c-48 -17 -49 -39 -3 -159 61 -164 51 -241 -37 -277 -16
-7 -31 -18 -34 -25 -7 -19 12 -81 30 -100 13 -13 19 -13 43 -1 15 8 46 35 69
60 23 25 42 39 42 32 0 -31 26 -38 84 -21 31 9 58 20 60 24 4 6 -31 113 -79
241 -7 19 -30 81 -50 138 -41 113 -46 116 -125 88z"/>
<path d="M4984 3109 c-6 -8 -31 -50 -54 -94 -24 -44 -60 -111 -80 -150 -94
-175 -118 -225 -111 -229 4 -3 30 -8 57 -11 49 -7 50 -7 76 31 15 22 48 82 75
134 27 52 58 108 68 124 l19 28 9 -23 c5 -13 15 -60 23 -103 7 -44 18 -84 24
-90 5 -5 10 -31 10 -57 0 -80 11 -96 68 -100 68 -5 76 -3 93 34 25 51 114 219
136 256 18 28 22 30 27 15 10 -36 38 -169 47 -229 17 -111 24 -123 77 -130 26
-4 55 -9 65 -12 21 -6 22 11 2 67 -8 23 -15 56 -15 72 0 30 -14 100 -51 250
-11 43 -19 90 -19 105 0 16 -4 34 -8 41 -12 18 -130 36 -147 22 -7 -5 -29 -43
-49 -83 -58 -113 -97 -181 -111 -196 -11 -11 -15 -4 -25 45 -6 33 -15 70 -20
84 -4 14 -11 45 -14 70 -9 70 -25 117 -42 124 -40 15 -120 18 -130 5z"/>
<path d="M5915 3080 c-34 -13 -48 -38 -49 -85 -1 -59 26 -88 84 -88 54 0 90
33 90 80 0 45 -14 69 -50 88 -32 17 -45 18 -75 5z"/>
</g>
</svg>
